<?xml version="1.0" standalone="no"?>
<!DOCTYPE svg PUBLIC "-//W3C//DTD SVG 20010904//EN"
 "http://www.w3.org/TR/2001/REC-SVG-20010904/DTD/svg10.dtd">
<svg version="1.0" xmlns="http://www.w3.org/2000/svg"
 width="1789.000000pt" height="591.000000pt" viewBox="0 0 1789.000000 591.000000"
 preserveAspectRatio="xMidYMid meet">

<g transform="translate(0.000000,591.000000) scale(0.100000,-0.100000)"
fill="#000000" stroke="none">
<path d="M6391 5893 c-116 -29 -213 -103 -271 -207 -38 -68 -52 -76 -123 -76
-84 0 -153 -40 -189 -109 -27 -52 -28 -58 -29 -215 0 -88 -4 -179 -8 -201 l-7
-40 -16 30 c-8 17 -53 117 -98 223 -90 209 -130 268 -198 295 -31 12 -94 16
-303 19 -255 3 -265 2 -304 -19 -63 -34 -88 -68 -155 -218 -58 -130 -149 -315
-167 -342 -4 -6 -8 39 -8 100 0 143 -21 201 -105 291 -93 99 -183 137 -415
173 -92 15 -173 18 -491 17 -430 -1 -459 -5 -512 -70 -44 -53 -52 -95 -53
-285 -1 -244 -4 -249 -66 -119 -27 58 -74 163 -103 233 -62 147 -102 196 -178
221 -33 10 -115 16 -274 20 -258 6 -297 0 -363 -57 -43 -37 -59 -68 -153 -290
-32 -76 -62 -139 -68 -140 -5 -1 -21 30 -36 67 -123 305 -494 481 -925 437
-150 -15 -250 -42 -358 -95 -203 -101 -326 -247 -386 -461 -18 -64 -22 -104
-22 -200 1 -139 23 -237 78 -354 46 -96 159 -211 257 -262 38 -18 68 -37 68
-41 0 -5 -35 -8 -79 -8 -43 0 -93 -5 -112 -11 -45 -15 -96 -64 -111 -108 -10
-29 -13 -433 -13 -1971 l0 -1935 22 -41 c28 -52 73 -91 123 -104 26 -7 614 -9
1832 -8 l1793 3 42 22 c50 27 78 64 93 124 7 29 10 170 8 429 l-3 385 -25 50
c-29 58 -71 89 -141 104 -34 8 -417 11 -1199 11 -631 0 -1155 3 -1164 6 -14 5
-16 37 -16 253 0 179 3 250 12 259 9 9 239 12 972 12 529 0 1002 5 1051 10 90
9 90 9 131 54 69 75 74 110 74 484 0 297 -1 325 -20 375 -23 62 -48 88 -110
116 -44 20 -60 21 -1058 21 -679 0 -1020 3 -1033 10 -18 10 -19 23 -19 190 l0
180 1116 0 c788 0 1128 3 1159 11 63 16 129 77 150 138 13 42 15 99 13 407 -3
349 -4 360 -25 402 l-23 42 22 0 c12 0 101 16 198 36 190 39 238 39 295 4 42
-26 46 -42 32 -137 -17 -124 -16 -3826 1 -3875 19 -53 50 -88 96 -109 39 -18
107 -19 1706 -19 1832 0 1755 -2 1811 59 22 23 29 46 42 137 20 141 30 473 18
640 -12 174 -39 227 -136 271 -38 17 -105 18 -1099 21 -752 2 -1063 6 -1073
13 -11 9 -13 274 -13 1490 l0 1479 350 0 c271 0 358 3 383 13 34 15 92 74 123
125 10 18 21 32 24 32 3 0 16 -21 29 -46 29 -53 69 -87 132 -110 38 -13 112
-15 568 -14 592 1 546 -5 643 86 46 44 63 54 91 54 35 0 101 -37 100 -55 -1
-5 -26 -19 -56 -30 -106 -38 -145 -85 -167 -200 -8 -43 -10 -299 -8 -900 l3
-840 22 -42 c31 -56 75 -88 153 -109 36 -10 67 -19 69 -20 1 -2 -9 -19 -24
-38 -56 -73 -54 -44 -55 -943 0 -568 3 -849 11 -885 16 -75 51 -132 96 -154
35 -18 66 -19 433 -19 528 1 712 21 874 94 86 39 143 79 252 177 l91 83 5
-102 c4 -78 10 -112 26 -143 26 -51 71 -90 120 -104 25 -8 261 -10 752 -8
l715 3 42 23 c24 12 55 41 70 64 l28 41 3 261 c2 144 0 277 -3 296 -5 26 -24
52 -72 98 l-65 63 7 197 6 197 32 50 c81 130 77 112 77 384 0 288 -2 297 -89
344 l-52 29 32 36 c40 45 66 104 84 188 7 36 16 68 19 71 2 3 22 -27 43 -66
79 -149 111 -191 156 -211 38 -18 67 -20 307 -20 l265 0 -36 -24 c-20 -14 -45
-42 -55 -63 -18 -36 -19 -75 -19 -928 l0 -890 27 -47 c20 -33 41 -53 75 -70
l48 -23 520 0 c566 0 602 3 750 56 88 32 161 77 225 137 23 22 43 35 45 29 33
-108 42 -126 79 -163 24 -25 57 -46 81 -53 65 -18 579 -15 642 4 66 20 111 70
149 165 l29 74 16 -73 c26 -113 76 -164 172 -176 29 -4 181 -5 338 -3 l286 3
48 30 c66 41 95 97 95 182 0 34 3 63 6 63 4 0 37 -29 74 -64 122 -114 237
-178 397 -218 77 -20 114 -23 303 -23 131 0 248 5 300 13 300 48 498 186 610
427 48 102 67 180 79 330 14 159 14 1106 0 1165 -14 61 -53 108 -108 133 -38
17 -68 21 -168 21 -66 1 -119 4 -117 7 2 3 38 30 81 59 242 165 357 305 439
535 76 213 98 451 61 650 -68 357 -221 592 -490 748 -160 93 -286 127 -489
134 -162 6 -261 -4 -405 -42 -205 -54 -327 -134 -483 -320 l-25 -30 -8 80
c-15 151 -42 205 -122 245 -50 25 -53 25 -352 28 -192 2 -315 -1 -341 -7 -52
-14 -88 -44 -115 -94 -22 -41 -22 -50 -25 -449 l-3 -408 -209 0 c-235 0 -240
2 -240 70 0 54 -52 251 -90 343 -66 158 -169 287 -312 388 -194 136 -392 199
-627 199 -144 0 -273 -21 -411 -66 -167 -55 -294 -138 -421 -271 l-64 -68 -5
110 c-7 118 -17 150 -67 197 -53 50 -65 52 -398 49 -356 -3 -371 -6 -422 -82
-24 -36 -29 -55 -33 -133 l-5 -91 -62 95 c-143 219 -127 212 -487 211 -256 -1
-288 -3 -358 -23 l-76 -21 -69 24 c-66 23 -77 24 -333 23 -266 -1 -411 -1
-900 0 -292 0 -317 -4 -367 -57 -47 -50 -53 -82 -53 -282 0 -164 -2 -184 -18
-198 -25 -23 -49 -21 -62 3 -6 12 -10 88 -9 197 1 142 -1 187 -14 223 -9 25
-17 48 -17 52 0 4 22 32 49 63 56 63 77 123 67 187 -4 24 -77 196 -163 383
-86 187 -196 430 -245 540 -135 306 -138 307 -464 313 -273 5 -314 -2 -382
-63 -42 -38 -58 -65 -127 -217 -101 -225 -135 -291 -143 -284 -3 4 -6 98 -6
209 -1 200 -1 202 -28 247 -32 56 -85 87 -175 104 l-68 12 3 47 c7 90 -36 170
-112 207 -42 20 -61 21 -344 24 -221 2 -313 -1 -351 -11z m215 -209 c79 -16
103 -16 293 4 71 8 73 7 82 -16 19 -49 -59 -144 -140 -171 -52 -17 -107 -13
-209 14 -117 31 -130 31 -199 -1 -43 -21 -65 -25 -104 -22 -27 3 -51 7 -54 9
-12 13 20 98 48 128 67 70 140 84 283 55z m-5471 -283 c171 -44 294 -131 353
-247 38 -77 56 -134 46 -144 -5 -5 -92 -10 -194 -11 -208 -2 -211 -2 -254 68
-41 65 -103 97 -185 97 -124 0 -191 -53 -231 -183 -39 -124 -15 -258 59 -332
34 -34 42 -37 115 -44 89 -9 160 -1 192 20 12 8 36 39 53 68 19 33 40 57 54
61 12 3 104 6 204 6 214 0 212 1 183 -92 -52 -168 -171 -265 -398 -325 -120
-32 -313 -36 -428 -10 -102 23 -226 70 -277 106 -145 99 -236 292 -224 471 18
256 206 449 492 506 100 20 335 12 440 -15z m1399 -13 c16 -15 81 -150 184
-383 200 -452 282 -641 282 -649 0 -3 -94 -6 -209 -6 -237 0 -248 3 -260 75
-10 60 -27 65 -232 65 -206 0 -213 -3 -226 -85 l-8 -50 -220 -3 c-127 -1 -223
2 -228 7 -6 6 25 82 81 203 49 106 145 317 212 468 67 151 131 292 142 313 30
60 55 66 270 67 180 0 188 -1 212 -22z m1186 12 c274 -7 312 -10 375 -30 136
-43 187 -84 211 -168 26 -89 -4 -175 -87 -245 l-40 -35 65 -42 c54 -35 71 -53
92 -97 51 -103 30 -240 -49 -321 -35 -36 -163 -83 -278 -102 -36 -5 -236 -10
-460 -10 l-396 0 -7 38 c-3 20 -6 253 -6 518 0 360 3 483 12 492 14 14 121 15
568 2z m1658 -7 c12 -10 55 -94 95 -188 41 -93 142 -322 226 -507 83 -185 151
-339 151 -342 0 -3 -95 -6 -210 -6 l-211 0 -23 25 c-13 14 -27 41 -30 61 -5
23 -14 38 -29 43 -12 4 -106 7 -209 7 -210 -1 -214 -2 -225 -72 -3 -21 -12
-45 -21 -51 -19 -15 -417 -19 -426 -4 -7 11 426 988 454 1024 l22 27 208 0
c183 0 210 -2 228 -17z m1033 -9 c34 -17 66 -54 254 -297 88 -113 166 -209
174 -212 11 -4 12 39 10 255 -3 224 -2 262 11 270 8 5 91 10 183 10 163 0 200
-6 219 -34 4 -6 8 -239 8 -518 l0 -508 -204 0 -204 0 -33 28 c-18 15 -108 117
-200 227 -91 110 -180 213 -197 229 -27 25 -32 27 -38 13 -3 -10 -4 -27 0 -40
3 -12 10 -115 16 -227 10 -191 10 -205 -6 -217 -13 -10 -69 -13 -206 -13
l-187 0 -16 30 c-13 25 -15 100 -15 524 0 386 3 496 13 500 25 11 391 -6 418
-20z m1899 13 c27 -14 48 -56 321 -666 88 -195 159 -360 159 -368 0 -10 -42
-13 -209 -13 l-210 0 -20 26 c-12 15 -21 35 -21 45 0 11 -9 28 -20 39 -19 19
-33 20 -219 20 -221 0 -231 -3 -231 -62 0 -17 -7 -40 -17 -50 -15 -16 -35 -18
-231 -18 -167 0 -213 3 -209 13 3 6 48 107 100 222 52 116 150 339 217 495 76
179 131 293 146 308 24 21 32 22 222 22 138 0 204 -4 222 -13z m-7395 -482
c34 -33 33 -79 0 -101 -39 -25 -55 -12 -55 45 0 85 13 98 55 56z m1438 -648
c18 -8 38 -21 46 -30 12 -16 6 -17 -84 -17 -106 0 -118 10 -54 42 41 22 50 22
92 5z m2847 -5 c28 -23 20 -38 -27 -51 -29 -8 -42 -7 -72 9 l-36 18 45 20 c57
26 63 26 90 4z m8555 -257 c367 -93 565 -347 604 -776 41 -448 -164 -817 -519
-932 -165 -54 -446 -62 -615 -18 -367 96 -573 408 -567 861 2 150 15 247 49
355 65 208 180 348 358 435 217 107 461 133 690 75z m3188 20 c221 -29 361
-91 486 -215 65 -64 86 -94 129 -181 93 -189 125 -316 125 -499 0 -140 -20
-241 -73 -375 -110 -276 -285 -429 -564 -492 -88 -20 -334 -22 -426 -4 -93 18
-225 70 -295 116 -80 52 -182 156 -228 232 -112 184 -162 469 -122 703 70 422
255 622 651 704 142 30 169 30 317 11z m-13257 -36 c8 -14 7 -626 -2 -640 -3
-5 -486 -9 -1200 -9 -805 0 -1202 -3 -1215 -10 -18 -10 -19 -25 -19 -383 0
-277 3 -376 12 -385 9 -9 268 -12 1104 -12 980 0 1094 -2 1108 -16 14 -13 16
-57 16 -330 l0 -314 -1108 0 c-848 0 -1111 -3 -1120 -12 -9 -9 -12 -127 -12
-470 l0 -458 1268 0 c973 0 1271 -3 1280 -12 18 -18 17 -657 -1 -682 -13 -17
-87 -18 -1743 -17 -1516 2 -1731 4 -1744 17 -13 13 -15 235 -18 1853 -1 1188
1 1848 8 1865 l10 26 1684 0 c1243 0 1687 -3 1692 -11z m1854 -4 c10 -12 13
-302 14 -1418 1 -771 -2 -1442 -7 -1492 -4 -56 -4 -96 2 -105 9 -13 153 -16
1163 -20 l1153 -5 3 -335 c2 -260 -1 -340 -10 -353 -13 -17 -103 -18 -1633
-17 -1279 0 -1622 3 -1632 13 -10 10 -13 401 -13 1870 -1 1022 2 1862 5 1867
4 6 180 10 474 10 408 0 470 -2 481 -15z m3164 -8 c17 -13 18 -32 17 -260 -1
-162 2 -253 9 -267 10 -19 20 -20 223 -20 117 0 219 4 227 9 12 8 14 50 11
263 -1 139 1 261 4 271 7 16 28 17 255 17 193 0 250 -3 259 -13 16 -20 16
-1653 0 -1673 -9 -11 -57 -14 -249 -14 -209 0 -239 2 -251 17 -11 13 -13 72
-11 307 2 182 -1 297 -7 306 -9 12 -48 16 -224 18 -187 3 -217 1 -231 -13 -14
-14 -16 -52 -16 -309 0 -232 -3 -296 -14 -311 -13 -17 -29 -19 -257 -16 -238
2 -244 3 -261 24 -16 20 -18 81 -18 850 l0 827 258 0 c199 0 262 -3 276 -13z
m1866 3 c18 -10 19 -38 20 -820 0 -445 -2 -821 -6 -835 -3 -13 -13 -26 -22
-29 -10 -3 -124 -6 -255 -8 -226 -3 -239 -2 -253 16 -12 17 -14 145 -14 833 0
800 0 813 20 833 19 19 33 20 256 20 139 0 243 -4 254 -10z m840 -17 c10 -10
107 -176 217 -370 200 -355 259 -451 271 -439 3 4 5 184 4 401 -2 269 0 401 8
415 10 19 20 20 250 20 131 0 245 -3 254 -6 14 -6 16 -89 16 -838 0 -634 -3
-835 -12 -844 -9 -9 -77 -12 -245 -12 l-233 0 -29 28 c-15 15 -136 216 -267
447 l-239 420 -5 -438 c-4 -374 -7 -439 -20 -447 -12 -8 -399 -17 -465 -10
-46 4 -45 -13 -45 860 0 455 3 830 8 835 4 4 121 5 261 2 229 -5 255 -7 271
-24z m4334 14 c16 -12 17 -52 14 -632 -4 -608 -4 -621 -26 -693 -66 -216 -185
-335 -380 -378 -90 -21 -400 -30 -473 -15 -183 38 -310 166 -369 371 -27 93
-41 360 -20 385 10 13 47 15 223 15 260 0 247 7 247 -132 0 -63 5 -111 14
-133 19 -46 69 -75 127 -75 106 0 108 12 109 727 0 439 3 562 13 566 6 3 123
6 258 6 184 1 250 -2 263 -12z m-6768 -1268 c17 -19 19 -43 24 -258 4 -197 8
-241 22 -267 10 -18 14 -41 11 -53 -5 -19 -11 -22 -36 -17 -16 3 -51 6 -78 6
-58 0 -61 9 -27 79 22 44 23 55 20 264 -3 187 -1 222 12 243 20 29 28 30 52 3z
m6974 -236 c37 -71 190 -220 298 -291 51 -33 92 -64 90 -69 -2 -4 -100 -8
-218 -8 -191 0 -219 -2 -253 -19 -50 -25 -85 -78 -98 -152 -6 -32 -13 -69 -15
-81 -4 -20 -9 -17 -52 29 -56 61 -142 118 -223 150 -32 13 -59 26 -59 29 0 4
52 33 116 64 99 48 128 69 194 134 42 42 89 97 103 124 67 119 78 137 85 137
4 0 18 -21 32 -47z m-1531 -135 c51 -74 101 -127 186 -195 l40 -32 -233 -1
c-141 0 -251 -5 -279 -11 -64 -17 -117 -70 -137 -139 -9 -30 -20 -61 -24 -68
-6 -9 -40 11 -125 70 -64 46 -117 85 -117 88 0 3 39 15 88 28 173 45 362 157
479 287 32 35 61 60 64 57 3 -4 29 -42 58 -84z m-1620 -226 c-117 -1 -214 0
-217 2 -4 5 22 119 59 258 l10 37 179 -147 180 -147 -211 -3z m-2824 -4 c4 -3
-9 -29 -28 -57 -36 -51 -51 -103 -63 -202 l-6 -56 -67 66 c-60 59 -215 162
-303 202 -42 19 -34 29 25 30 28 0 97 7 152 14 98 13 278 15 290 3z m6776 -74
c10 -12 12 -128 10 -582 -2 -350 -6 -574 -13 -585 -8 -17 -12 -17 -31 -4 l-22
14 0 529 c0 526 0 529 -22 584 -13 30 -23 56 -23 58 0 1 20 2 44 2 27 0 48 -6
57 -16z m-7576 -134 c212 -12 261 -22 354 -77 123 -73 226 -198 277 -337 47
-129 59 -217 58 -421 0 -178 -2 -196 -28 -280 -79 -259 -250 -440 -472 -499
-87 -24 -376 -37 -724 -34 l-305 3 -3 785 c-2 432 0 804 3 828 l6 42 322 0
c177 0 408 -5 512 -10z m2233 -3 c13 -16 18 -375 6 -387 -5 -5 -173 -10 -374
-12 -201 -2 -373 -7 -382 -12 -15 -7 -18 -21 -18 -75 0 -36 5 -73 10 -81 8
-13 57 -15 322 -18 205 -2 316 -7 325 -14 16 -13 19 -354 3 -378 -8 -13 -59
-15 -335 -18 l-326 -3 3 -112 3 -112 395 -5 395 -5 10 -25 c7 -16 10 -93 7
-207 l-4 -183 -668 0 c-563 0 -669 2 -679 14 -16 19 -16 -11 -13 853 2 677 4
763 18 777 14 14 87 16 653 16 510 0 641 -3 649 -13z m2140 -16 c45 -11 104
-32 131 -45 63 -32 135 -113 160 -181 67 -179 42 -340 -75 -473 -25 -29 -45
-54 -43 -55 2 -1 36 -24 76 -50 59 -40 77 -58 99 -102 24 -51 26 -63 27 -222
2 -163 1 -170 -25 -225 -57 -123 -138 -190 -287 -241 l-96 -32 -509 -3 c-296
-2 -513 1 -518 6 -10 10 -12 1601 -2 1626 3 8 13 17 22 20 10 3 229 3 487 1
435 -3 476 -5 553 -24z m1577 19 c281 -16 425 -90 485 -247 32 -82 41 -317 15
-395 -23 -72 -65 -127 -141 -184 -35 -27 -64 -52 -64 -56 0 -4 12 -11 28 -14
46 -11 103 -44 134 -77 39 -43 58 -114 58 -217 0 -122 16 -241 47 -342 14 -47
23 -94 20 -102 -6 -14 -39 -16 -270 -16 -218 0 -267 3 -277 14 -7 10 -14 86
-20 215 -7 176 -11 206 -30 246 -34 71 -53 78 -209 86 -113 6 -140 5 -159 -8
l-24 -15 4 -252 c2 -204 0 -256 -11 -269 -12 -15 -43 -17 -260 -17 -179 0
-250 3 -259 12 -19 19 -17 1587 2 1613 7 10 32 21 57 25 64 11 699 11 874 0z
m1353 -6 l22 -15 0 -548 0 -548 23 -43 c28 -54 84 -84 178 -99 126 -19 185 11
226 118 16 41 18 102 23 583 4 421 8 540 18 550 20 20 494 25 510 5 8 -10 12
-126 12 -403 1 -379 -9 -646 -31 -809 -24 -180 -118 -315 -275 -393 -139 -70
-505 -104 -705 -66 -228 43 -396 164 -458 327 -52 141 -54 163 -58 763 -4 510
-3 563 12 578 24 24 469 24 503 0z"/>
<path d="M2292 5033 c-5 -10 -31 -83 -57 -162 -39 -116 -45 -145 -34 -152 8
-5 60 -9 117 -9 77 0 104 3 108 14 4 10 -108 311 -121 324 -2 2 -8 -5 -13 -15z"/>
<path d="M3624 5151 c-29 -13 -49 -130 -25 -146 6 -3 65 -6 131 -6 145 0 170
10 170 67 0 54 -36 84 -102 84 -29 0 -75 2 -103 5 -27 3 -59 1 -71 -4z"/>
<path d="M3613 4783 c-29 -20 -43 -115 -23 -153 23 -43 115 -50 249 -21 88 19
111 35 111 77 0 43 -18 72 -52 83 -43 13 -269 25 -285 14z"/>
<path d="M5137 5043 c-2 -5 -25 -74 -51 -155 -25 -81 -49 -154 -52 -161 -4
-12 18 -16 116 -22 67 -4 124 -5 127 -2 7 7 -118 347 -128 347 -4 0 -10 -3
-12 -7z"/>
<path d="M8073 5018 c-5 -7 -27 -71 -47 -143 -20 -71 -40 -138 -42 -147 -5
-16 5 -18 110 -18 108 0 116 1 116 19 0 27 -91 285 -104 293 -15 11 -22 10
-33 -4z"/>
<path d="M13385 3588 c-99 -35 -146 -119 -179 -323 -18 -113 -6 -308 24 -386
38 -101 96 -161 189 -194 127 -44 283 20 345 144 61 119 78 352 38 503 -53
197 -134 268 -302 267 -47 0 -98 -5 -115 -11z m168 -226 c29 -26 38 -49 51
-132 10 -63 10 -97 0 -181 -8 -57 -18 -114 -24 -127 -20 -46 -115 -52 -145 -9
-22 31 -22 385 0 427 27 52 75 61 118 22z"/>
<path d="M16695 3576 c-64 -30 -97 -65 -135 -147 -62 -133 -75 -311 -34 -487
47 -208 193 -300 389 -247 157 42 218 167 219 445 0 238 -74 401 -202 444 -70
24 -177 21 -237 -8z m175 -196 c32 -17 40 -67 40 -257 0 -182 0 -184 -25 -208
-32 -33 -93 -34 -122 -2 -33 36 -40 58 -47 147 -12 143 17 308 56 323 22 9 79
7 98 -3z"/>
<path d="M8876 1468 c-14 -19 -16 -73 -16 -390 l0 -367 22 -15 c30 -21 195
-22 264 -1 131 39 196 172 197 401 0 126 -31 229 -89 293 -48 53 -71 62 -214
86 -127 20 -146 19 -164 -7z m264 -342 c0 -131 -9 -184 -33 -192 -14 -4 -25 0
-34 12 -20 27 -8 251 15 277 14 16 16 16 34 1 15 -14 18 -32 18 -98z"/>
<path d="M13023 1520 c-35 -14 -43 -42 -43 -154 l0 -106 149 0 c155 0 190 7
229 42 77 73 23 191 -98 217 -60 13 -206 13 -237 1z"/>
<path d="M13008 939 c-16 -9 -18 -26 -18 -128 0 -149 8 -162 96 -169 79 -5
236 13 273 32 66 35 98 124 66 185 -22 44 -78 67 -197 80 -120 14 -198 14
-220 0z"/>
<path d="M14742 1482 c-16 -16 -22 -39 -27 -108 -4 -48 -4 -108 1 -133 l9 -46
95 -3 c110 -4 238 11 278 32 37 19 52 55 52 124 0 73 -23 113 -76 131 -21 7
-100 15 -175 18 -128 5 -138 4 -157 -15z"/>
</g>
</svg>
